<svg version="1.1" id="Layer_1" xmlns="http://www.w3.org/2000/svg" xmlns:xlink="http://www.w3.org/1999/xlink" x="0px" y="0px"
	 width="100%" viewBox="0 0 640 512" enable-background="new 0 0 640 512" xml:space="preserve">
<path fill="#000000" opacity="1.000000" stroke="none" 
	d="
M299.512787,249.445969 
	C313.857544,259.857330 326.835602,271.289520 339.134827,283.538239 
	C342.142883,286.533936 342.428192,288.593262 339.245819,291.703827 
	C333.816833,297.010376 328.820251,302.759277 323.214050,308.782104 
	C287.500153,266.091034 248.577606,228.281113 195.956375,207.084961 
	C200.569656,206.607635 205.179214,205.758469 209.796814,205.712158 
	C244.865845,205.360382 277.952667,213.958069 309.738403,228.236588 
	C328.673523,236.742447 346.162445,247.648544 362.582550,260.299225 
	C367.365021,263.983826 367.260559,264.322845 362.735901,268.463226 
	C358.805267,272.060059 354.862793,275.674164 351.257690,279.586639 
	C348.536133,282.540192 346.654999,282.253693 343.947174,279.516235 
	C323.730408,259.078400 300.441101,242.856064 274.858215,229.883957 
	C256.227600,220.437057 236.519333,214.023712 216.137222,209.528427 
	C246.311722,217.608322 273.777496,231.305634 299.512787,249.445969 
z"/>
<path fill="#000000" opacity="1.000000" stroke="none" 
	d="
M342.909363,96.738922 
	C376.190796,102.365112 402.366394,118.513832 421.216766,146.134323 
	C431.162079,160.706619 436.794525,176.936646 439.142944,194.356384 
	C439.270935,195.305954 439.159454,196.287811 438.775940,197.521500 
	C420.832916,143.134293 384.847198,110.115898 326.542175,109.864182 
	C268.067963,109.611740 231.744247,142.367081 213.509888,197.585739 
	C212.024246,193.294983 213.481857,190.089264 214.094238,186.997391 
	C223.709122,138.453125 262.589630,102.553810 311.619568,96.539276 
	C321.947235,95.272392 332.192047,95.431755 342.909363,96.738922 
z"/>
<path fill="#000000" opacity="1.000000" stroke="none" 
	d="
M332.033936,182.979813 
	C329.259857,182.166046 326.388855,182.210510 323.593018,182.480026 
	C319.007172,182.922119 315.973846,181.214340 315.296600,176.638367 
	C314.638550,172.192276 317.560211,170.521133 322.689423,170.317291 
	C316.992554,169.118912 316.079102,169.913284 312.700317,176.077759 
	C310.662323,179.796021 311.376801,184.212753 308.896332,189.059021 
	C305.406830,184.075378 307.321442,179.780365 308.445343,174.640030 
	C304.598267,179.516006 304.205231,184.300659 304.271545,189.267715 
	C304.294098,190.958633 304.751709,193.386261 301.891113,193.255463 
	C299.513428,193.146759 299.878052,191.026367 299.761230,189.422836 
	C299.242706,182.307144 301.109924,175.920105 305.553894,170.289505 
	C306.636292,168.918060 308.349060,167.672668 307.220367,165.492935 
	C306.088654,163.307373 304.040192,163.309525 302.018555,163.381638 
	C293.213196,163.695663 284.380920,162.673981 275.586975,164.119217 
	C273.221527,164.507950 270.336700,164.830643 268.797150,162.233612 
	C267.407806,159.889954 267.915039,157.435059 269.848389,154.913986 
	C262.699738,155.342773 255.720764,157.199234 248.419708,153.670181 
	C256.483185,148.190186 265.552612,154.341064 273.558777,149.953629 
	C276.309296,153.821838 280.735016,151.421341 284.760498,151.393021 
	C288.920898,151.363770 293.118347,150.827698 297.511932,153.224045 
	C294.251343,156.215942 290.815399,155.690460 287.671326,155.991180 
	C284.377350,156.306229 281.119720,154.812241 277.690186,155.522888 
	C278.014313,157.844513 279.522797,158.699951 281.537109,158.527344 
	C289.189819,157.871567 296.840302,157.930649 304.499664,158.310394 
	C305.389832,158.354538 306.074066,157.869843 306.619751,156.303452 
	C302.750031,152.700241 297.448853,151.044357 292.644318,148.864288 
	C288.441986,146.957504 285.868500,144.825882 286.874512,139.835709 
	C280.640289,138.248917 274.095673,140.933670 267.673981,137.745361 
	C275.281158,131.253021 284.539307,138.612473 292.245148,133.767761 
	C294.501953,136.719086 297.937164,135.886490 301.343231,135.278641 
	C306.284332,134.396866 311.037292,134.839386 316.802643,137.186996 
	C309.935028,140.874191 303.618347,138.442383 297.572693,139.661453 
	C296.302551,143.266083 297.667175,145.603683 301.135498,146.984894 
	C301.443237,147.107452 301.734528,147.279022 302.018677,147.452087 
	C308.219147,151.228683 314.564697,154.089645 321.559296,149.434967 
	C326.882599,145.892487 331.383789,149.405197 335.863464,151.216339 
	C337.913025,152.044983 339.416870,152.609634 341.358124,151.604507 
	C342.393372,151.068466 343.451843,150.575836 344.510162,150.085968 
	C349.685730,147.690369 355.641998,146.129791 356.022797,139.027496 
	C349.677094,139.068405 342.922699,140.476089 336.040802,137.998825 
	C340.618927,133.748886 378.169159,133.514114 384.225464,137.477814 
	C381.601349,140.191757 378.284943,139.154984 375.306030,139.312653 
	C372.163666,139.479004 369.005615,139.349960 365.153839,139.349960 
	C366.807495,145.656693 362.621521,147.386078 358.189545,149.505325 
	C353.961853,151.526871 349.227570,152.878738 345.509430,156.354416 
	C351.138153,159.507721 372.046173,159.074203 374.842957,155.341354 
	C367.993744,155.325134 361.359192,157.170700 354.512665,153.738739 
	C362.220459,147.702728 371.539276,154.729385 379.384033,150.005264 
	C381.924164,153.578033 386.159393,151.628952 390.054504,151.366089 
	C394.525879,151.064346 398.852783,151.366821 403.087372,153.295105 
	C397.005951,157.004593 390.312531,155.376831 383.840576,155.411057 
	C384.647888,163.766647 382.946930,165.278351 374.690979,163.996674 
	C366.077545,162.659531 357.399200,163.472626 348.754364,163.469879 
	C344.506897,163.468521 343.418915,166.273788 346.224335,169.796173 
	C350.703827,175.420471 352.736053,181.716324 352.202087,188.843964 
	C352.075592,190.532089 352.655640,193.066132 349.882355,192.935959 
	C347.238251,192.811874 347.693054,190.314163 347.786560,188.632065 
	C348.103058,182.939774 346.667450,177.880630 342.892120,173.477295 
	C344.397461,178.385605 347.091400,183.251419 343.363678,189.085693 
	C340.715820,185.988297 342.105621,182.912155 341.180206,180.349854 
	C340.208649,177.659729 338.994476,175.143570 337.537628,172.709167 
	C335.917542,170.001999 333.770203,168.657639 329.038757,170.247375 
	C333.445221,170.565964 336.401093,171.361038 336.950684,174.850906 
	C337.522919,178.484802 335.379395,180.783493 332.250854,182.764481 
	C332.010468,182.994080 332.033936,182.979813 332.033936,182.979813 
z"/>
<path fill="#000000" opacity="1.000000" stroke="none" 
	d="
M342.425964,229.323547 
	C367.135620,217.996597 392.613770,210.467514 419.149841,206.945618 
	C429.288513,205.600021 439.617554,204.389236 449.925385,206.510513 
	C452.116486,206.961441 454.479675,206.576218 456.733368,206.576218 
	C456.971039,208.382919 455.661743,208.208252 454.826843,208.517242 
	C425.224213,219.472900 399.495209,236.772263 375.747253,257.193390 
	C371.939178,260.467987 369.237610,261.475891 365.243408,257.717682 
	C361.900696,254.572479 357.890411,252.136688 353.197693,248.662735 
	C379.135864,230.981628 405.863495,217.136932 435.729248,209.633240 
	C432.547089,209.119781 429.714264,210.686539 426.756439,211.351959 
	C423.683472,212.043274 420.687469,213.083191 417.667419,214.002228 
	C394.925751,220.922836 373.556458,230.852219 353.579865,243.696945 
	C350.222687,245.855576 347.711853,245.872162 344.608917,243.612579 
	C340.507568,240.625961 335.506775,238.990799 331.317993,235.336517 
	C334.701782,232.359406 338.643707,231.366043 342.425964,229.323547 
z"/>
<path fill="#000000" opacity="1.000000" stroke="none" 
	d="
M355.757263,210.624054 
	C379.010437,204.839600 402.157471,202.612610 425.717346,204.774597 
	C417.105042,206.231186 408.456024,207.500671 399.887512,209.180603 
	C377.116760,213.645004 354.999237,220.227127 333.961182,230.165222 
	C326.342072,233.764389 318.610962,232.146683 311.823669,225.105560 
	C325.991028,218.705521 340.467163,214.115692 355.757263,210.624054 
z"/>
<path fill="#000000" opacity="1.000000" stroke="none" 
	d="
M263.307800,181.261856 
	C265.624084,177.163712 267.245789,173.209885 268.097107,168.915894 
	C268.383453,167.471649 268.359375,164.943161 270.662201,165.379944 
	C273.182556,165.858002 272.312805,168.328476 272.062836,169.976120 
	C271.306610,174.960434 269.417908,179.552246 266.625671,183.757385 
	C260.993286,192.239883 253.533218,198.686462 244.587677,203.461990 
	C243.758362,203.904755 242.929947,204.703308 241.269943,203.427536 
	C249.744949,197.194031 257.849121,190.734726 263.307800,181.261856 
z"/>
<path fill="#000000" opacity="1.000000" stroke="none" 
	d="
M258.744873,202.679504 
	C257.629639,203.411667 256.800079,203.966309 255.921829,204.428238 
	C255.698196,204.545837 255.319778,204.369125 254.618256,204.274399 
	C255.954285,201.044098 258.830078,199.240326 260.805389,196.766022 
	C267.151672,188.816574 271.785797,180.161987 272.826416,169.848907 
	C272.993256,168.195786 272.507874,165.432159 275.158997,165.765564 
	C277.851593,166.104218 277.179169,168.879868 276.972290,170.716934 
	C275.495941,183.826309 268.889587,194.083710 258.744873,202.679504 
z"/>
<path fill="#000000" opacity="1.000000" stroke="none" 
	d="
M394.552551,189.446228 
	C398.388214,193.988617 403.193909,196.955658 407.389801,200.596573 
	C406.456512,201.589127 405.762054,201.378296 405.202148,201.073105 
	C392.779572,194.302155 383.142944,185.210220 380.053711,170.707352 
	C379.915833,170.060013 379.778198,169.393631 379.786957,168.738068 
	C379.803711,167.477829 379.346283,165.820450 381.234344,165.555420 
	C383.080597,165.296295 383.236115,166.873840 383.515320,168.173187 
	C385.228668,176.146637 388.958008,183.081635 394.552551,189.446228 
z"/>
<path fill="#000000" opacity="1.000000" stroke="none" 
	d="
M281.329041,174.879150 
	C280.564911,188.185608 274.576050,198.212646 264.919159,206.715912 
	C263.739746,204.367722 265.409485,203.510361 266.207367,202.475632 
	C273.653046,192.819885 277.828094,182.055176 277.760529,169.738373 
	C277.751831,168.154007 276.807190,165.351898 279.559326,165.446564 
	C282.093842,165.533737 281.134369,168.257416 281.301422,169.922684 
	C281.450134,171.404678 281.332947,172.913345 281.329041,174.879150 
z"/>
<path fill="#000000" opacity="1.000000" stroke="none" 
	d="
M379.009827,167.658142 
	C379.481323,181.220062 386.390656,191.239136 395.085663,200.498123 
	C391.892151,200.498367 390.216980,198.330734 388.395172,196.649277 
	C380.692932,189.540314 375.904205,180.872055 375.028992,170.286530 
	C374.897675,168.698257 374.585846,166.784714 376.346466,165.820908 
	C377.642914,165.111176 378.497192,166.003799 379.009827,167.658142 
z"/>
<path fill="#000000" opacity="1.000000" stroke="none" 
	d="
M375.109131,178.921265 
	C376.080872,187.482529 380.706268,194.017258 385.327728,200.889114 
	C382.385742,201.352478 381.666321,199.540161 380.672516,198.426636 
	C373.077789,189.917038 369.742310,179.940628 370.694031,168.559967 
	C370.812622,167.141617 370.517792,165.162491 372.764374,165.370270 
	C374.587982,165.538925 374.202789,167.328186 374.253784,168.582565 
	C374.388672,171.899658 374.042908,175.250366 375.109131,178.921265 
z"/>
<path fill="#000000" opacity="1.000000" stroke="none" 
	d="
M317.472046,199.264771 
	C314.695984,205.486343 311.912109,211.247787 307.056213,215.874573 
	C305.843353,214.212433 306.736420,213.231201 307.299683,212.305084 
	C312.012207,204.556992 315.107056,196.210083 316.775879,187.307266 
	C317.073547,185.719299 317.337952,183.613937 319.670593,184.166809 
	C321.634705,184.632294 321.215271,186.534256 320.839905,187.936279 
	C319.854462,191.616898 318.702881,195.253021 317.472046,199.264771 
z"/>
<path fill="#000000" opacity="1.000000" stroke="none" 
	d="
M328.412079,201.414078 
	C329.505280,205.783279 330.548248,209.715775 331.714325,214.112534 
	C325.469574,209.476364 321.617767,190.079346 326.335846,184.141647 
	C328.416046,190.080292 327.835358,195.627777 328.412079,201.414078 
z"/>
<path fill="#000000" opacity="1.000000" stroke="none" 
	d="
M331.999969,183.001007 
	C333.066345,183.456116 334.330872,183.852859 334.521088,185.157928 
	C335.788605,193.853180 338.929565,201.945587 343.135315,210.016266 
	C340.255188,210.162735 339.647980,208.349838 338.910400,207.090622 
	C334.676300,199.861923 330.182404,192.673340 331.833557,183.322632 
	C332.033936,182.979813 332.010468,182.994080 331.999969,183.001007 
z"/>
</svg>